<mxfile host="app.diagrams.net" modified="2024-01-27T21:20:55.888Z" agent="Mozilla/5.0 (X11; Linux x86_64; rv:122.0) Gecko/20100101 Firefox/122.0" etag="0Js_VvcOM5RTGWtBsPMx" version="23.0.2" type="device">
  <diagram id="C5RBs43oDa-KdzZeNtuy" name="Page-1">
    <mxGraphModel dx="3185" dy="2942" grid="1" gridSize="10" guides="1" tooltips="1" connect="1" arrows="1" fold="1" page="1" pageScale="1" pageWidth="827" pageHeight="1169" math="0" shadow="0">
      <root>
        <mxCell id="WIyWlLk6GJQsqaUBKTNV-0" />
        <mxCell id="WIyWlLk6GJQsqaUBKTNV-1" parent="WIyWlLk6GJQsqaUBKTNV-0" />
        <mxCell id="mTWh2Is8anzTjaVcfyPL-7" value="" style="edgeStyle=orthogonalEdgeStyle;rounded=0;orthogonalLoop=1;jettySize=auto;html=1;entryX=0.5;entryY=0;entryDx=0;entryDy=0;" edge="1" parent="WIyWlLk6GJQsqaUBKTNV-1" source="WIyWlLk6GJQsqaUBKTNV-3" target="mTWh2Is8anzTjaVcfyPL-8">
          <mxGeometry relative="1" as="geometry">
            <mxPoint x="316" y="-157.73000000000002" as="targetPoint" />
          </mxGeometry>
        </mxCell>
        <mxCell id="WIyWlLk6GJQsqaUBKTNV-3" value="platoons A and B (ahead of A) are on the highway going a stable speed (s), and a vehicle V is approaching at them from behind at a speed (s&#39;) " style="rounded=1;whiteSpace=wrap;html=1;fontSize=12;glass=0;strokeWidth=1;shadow=0;" parent="WIyWlLk6GJQsqaUBKTNV-1" vertex="1">
          <mxGeometry x="191" y="-327.73" width="250" height="77.73" as="geometry" />
        </mxCell>
        <mxCell id="mTWh2Is8anzTjaVcfyPL-10" value="" style="edgeStyle=orthogonalEdgeStyle;rounded=0;orthogonalLoop=1;jettySize=auto;html=1;" edge="1" parent="WIyWlLk6GJQsqaUBKTNV-1" source="mTWh2Is8anzTjaVcfyPL-8" target="mTWh2Is8anzTjaVcfyPL-9">
          <mxGeometry relative="1" as="geometry" />
        </mxCell>
        <mxCell id="mTWh2Is8anzTjaVcfyPL-8" value="V approaches platoon A" style="rounded=0;whiteSpace=wrap;html=1;" vertex="1" parent="WIyWlLk6GJQsqaUBKTNV-1">
          <mxGeometry x="226" y="-170" width="180" height="40" as="geometry" />
        </mxCell>
        <mxCell id="mTWh2Is8anzTjaVcfyPL-9" value="V and establishes a temporary platoon with platoon leader of A (L&lt;sub&gt;A&lt;/sub&gt;) with A in anticipation of a new member " style="whiteSpace=wrap;html=1;rounded=0;" vertex="1" parent="WIyWlLk6GJQsqaUBKTNV-1">
          <mxGeometry x="226" y="-90" width="180" height="80" as="geometry" />
        </mxCell>
        <mxCell id="mTWh2Is8anzTjaVcfyPL-15" value="" style="edgeStyle=orthogonalEdgeStyle;rounded=0;orthogonalLoop=1;jettySize=auto;html=1;" edge="1" parent="WIyWlLk6GJQsqaUBKTNV-1" source="mTWh2Is8anzTjaVcfyPL-11" target="mTWh2Is8anzTjaVcfyPL-14">
          <mxGeometry relative="1" as="geometry" />
        </mxCell>
        <mxCell id="mTWh2Is8anzTjaVcfyPL-11" value="V and establishes a temporary platoon with platoon leader of A (L&lt;sub&gt;A&lt;/sub&gt;) with A in anticipation of a new member " style="whiteSpace=wrap;html=1;rounded=0;" vertex="1" parent="WIyWlLk6GJQsqaUBKTNV-1">
          <mxGeometry x="226" y="-90" width="180" height="80" as="geometry" />
        </mxCell>
        <object label="NO" text="text1" id="mTWh2Is8anzTjaVcfyPL-21">
          <mxCell style="edgeStyle=orthogonalEdgeStyle;rounded=0;orthogonalLoop=1;jettySize=auto;html=1;" edge="1" parent="WIyWlLk6GJQsqaUBKTNV-1" source="mTWh2Is8anzTjaVcfyPL-14" target="mTWh2Is8anzTjaVcfyPL-20">
            <mxGeometry relative="1" as="geometry" />
          </mxCell>
        </object>
        <mxCell id="mTWh2Is8anzTjaVcfyPL-23" value="YES" style="edgeStyle=orthogonalEdgeStyle;rounded=0;orthogonalLoop=1;jettySize=auto;html=1;" edge="1" parent="WIyWlLk6GJQsqaUBKTNV-1" source="mTWh2Is8anzTjaVcfyPL-14" target="mTWh2Is8anzTjaVcfyPL-22">
          <mxGeometry relative="1" as="geometry" />
        </mxCell>
        <mxCell id="mTWh2Is8anzTjaVcfyPL-14" value="is s&#39; &amp;gt;&amp;gt; s?" style="rhombus;whiteSpace=wrap;html=1;rounded=0;" vertex="1" parent="WIyWlLk6GJQsqaUBKTNV-1">
          <mxGeometry x="226" y="40" width="180" height="140" as="geometry" />
        </mxCell>
        <mxCell id="mTWh2Is8anzTjaVcfyPL-25" value="" style="edgeStyle=orthogonalEdgeStyle;rounded=0;orthogonalLoop=1;jettySize=auto;html=1;" edge="1" parent="WIyWlLk6GJQsqaUBKTNV-1" source="mTWh2Is8anzTjaVcfyPL-20" target="mTWh2Is8anzTjaVcfyPL-24">
          <mxGeometry relative="1" as="geometry" />
        </mxCell>
        <mxCell id="mTWh2Is8anzTjaVcfyPL-20" value="V stays in the range of platoon leader A long enough to complete the platoon membership process" style="whiteSpace=wrap;html=1;rounded=0;" vertex="1" parent="WIyWlLk6GJQsqaUBKTNV-1">
          <mxGeometry x="516" y="60" width="120" height="100" as="geometry" />
        </mxCell>
        <mxCell id="mTWh2Is8anzTjaVcfyPL-27" value="" style="edgeStyle=orthogonalEdgeStyle;rounded=0;orthogonalLoop=1;jettySize=auto;html=1;" edge="1" parent="WIyWlLk6GJQsqaUBKTNV-1" source="mTWh2Is8anzTjaVcfyPL-22" target="mTWh2Is8anzTjaVcfyPL-26">
          <mxGeometry relative="1" as="geometry" />
        </mxCell>
        <mxCell id="mTWh2Is8anzTjaVcfyPL-22" value="The membership process is interrupted due to V speeding off out of range " style="whiteSpace=wrap;html=1;rounded=0;perimeterSpacing=0;gradientColor=none;" vertex="1" parent="WIyWlLk6GJQsqaUBKTNV-1">
          <mxGeometry x="226" y="300" width="180" height="60" as="geometry" />
        </mxCell>
        <mxCell id="mTWh2Is8anzTjaVcfyPL-24" value="V joins A" style="whiteSpace=wrap;html=1;rounded=0;" vertex="1" parent="WIyWlLk6GJQsqaUBKTNV-1">
          <mxGeometry x="516" y="220" width="120" height="60" as="geometry" />
        </mxCell>
        <mxCell id="mTWh2Is8anzTjaVcfyPL-29" value="" style="edgeStyle=orthogonalEdgeStyle;rounded=0;orthogonalLoop=1;jettySize=auto;html=1;" edge="1" parent="WIyWlLk6GJQsqaUBKTNV-1" source="mTWh2Is8anzTjaVcfyPL-26" target="mTWh2Is8anzTjaVcfyPL-28">
          <mxGeometry relative="1" as="geometry" />
        </mxCell>
        <mxCell id="mTWh2Is8anzTjaVcfyPL-26" value="A transmits a message using DSRC, informing other platoons and vehicles about the presence of V and its speeding state, and records the action in its own chain" style="whiteSpace=wrap;html=1;rounded=0;" vertex="1" parent="WIyWlLk6GJQsqaUBKTNV-1">
          <mxGeometry x="212" y="440" width="208" height="100" as="geometry" />
        </mxCell>
        <mxCell id="mTWh2Is8anzTjaVcfyPL-28" value="2" style="ellipse;whiteSpace=wrap;html=1;rounded=0;" vertex="1" parent="WIyWlLk6GJQsqaUBKTNV-1">
          <mxGeometry x="276" y="610" width="80" height="80" as="geometry" />
        </mxCell>
        <mxCell id="mTWh2Is8anzTjaVcfyPL-30" value="START" style="ellipse;whiteSpace=wrap;html=1;aspect=fixed;" vertex="1" parent="WIyWlLk6GJQsqaUBKTNV-1">
          <mxGeometry x="276" y="-510" width="80" height="80" as="geometry" />
        </mxCell>
        <mxCell id="mTWh2Is8anzTjaVcfyPL-31" value="" style="endArrow=classic;html=1;rounded=0;exitX=0.5;exitY=1;exitDx=0;exitDy=0;entryX=0.507;entryY=-0.034;entryDx=0;entryDy=0;entryPerimeter=0;" edge="1" parent="WIyWlLk6GJQsqaUBKTNV-1" source="mTWh2Is8anzTjaVcfyPL-30" target="WIyWlLk6GJQsqaUBKTNV-3">
          <mxGeometry width="50" height="50" relative="1" as="geometry">
            <mxPoint x="326" y="-310" as="sourcePoint" />
            <mxPoint x="376" y="-360" as="targetPoint" />
          </mxGeometry>
        </mxCell>
        <mxCell id="mTWh2Is8anzTjaVcfyPL-32" value="2" style="ellipse;whiteSpace=wrap;html=1;aspect=fixed;" vertex="1" parent="WIyWlLk6GJQsqaUBKTNV-1">
          <mxGeometry x="1100" y="-510" width="80" height="80" as="geometry" />
        </mxCell>
        <mxCell id="mTWh2Is8anzTjaVcfyPL-33" value="V is approaching B with speed (s&#39;) and B has received a DSRC communication being informed of A&#39;s presence and current trajectory." style="rounded=1;whiteSpace=wrap;html=1;" vertex="1" parent="WIyWlLk6GJQsqaUBKTNV-1">
          <mxGeometry x="1021" y="-327.72" width="238" height="77.72" as="geometry" />
        </mxCell>
        <mxCell id="mTWh2Is8anzTjaVcfyPL-34" value="" style="endArrow=classic;html=1;rounded=0;exitX=0.5;exitY=1;exitDx=0;exitDy=0;" edge="1" parent="WIyWlLk6GJQsqaUBKTNV-1" target="mTWh2Is8anzTjaVcfyPL-33">
          <mxGeometry width="50" height="50" relative="1" as="geometry">
            <mxPoint x="1140" y="-430" as="sourcePoint" />
            <mxPoint x="1139" y="-320" as="targetPoint" />
          </mxGeometry>
        </mxCell>
        <mxCell id="mTWh2Is8anzTjaVcfyPL-43" value="" style="edgeStyle=orthogonalEdgeStyle;rounded=0;orthogonalLoop=1;jettySize=auto;html=1;" edge="1" parent="WIyWlLk6GJQsqaUBKTNV-1" source="mTWh2Is8anzTjaVcfyPL-40" target="mTWh2Is8anzTjaVcfyPL-42">
          <mxGeometry relative="1" as="geometry" />
        </mxCell>
        <mxCell id="mTWh2Is8anzTjaVcfyPL-40" value="members of B maneuver appropriately to avoid collision with V" style="rounded=0;whiteSpace=wrap;html=1;" vertex="1" parent="WIyWlLk6GJQsqaUBKTNV-1">
          <mxGeometry x="1031" y="-170" width="218" height="40" as="geometry" />
        </mxCell>
        <mxCell id="mTWh2Is8anzTjaVcfyPL-41" value="" style="endArrow=classic;html=1;rounded=0;exitX=0.5;exitY=1;exitDx=0;exitDy=0;entryX=0.5;entryY=0;entryDx=0;entryDy=0;" edge="1" parent="WIyWlLk6GJQsqaUBKTNV-1" source="mTWh2Is8anzTjaVcfyPL-33" target="mTWh2Is8anzTjaVcfyPL-40">
          <mxGeometry width="50" height="50" relative="1" as="geometry">
            <mxPoint x="1059" y="-170" as="sourcePoint" />
            <mxPoint x="1109" y="-220" as="targetPoint" />
          </mxGeometry>
        </mxCell>
        <mxCell id="mTWh2Is8anzTjaVcfyPL-42" value="while passing, B attempts to form a temporary platoon with V" style="whiteSpace=wrap;html=1;rounded=0;" vertex="1" parent="WIyWlLk6GJQsqaUBKTNV-1">
          <mxGeometry x="1031" y="-70" width="218" height="80" as="geometry" />
        </mxCell>
        <object label="NO" text="text1" id="mTWh2Is8anzTjaVcfyPL-45">
          <mxCell style="edgeStyle=orthogonalEdgeStyle;rounded=0;orthogonalLoop=1;jettySize=auto;html=1;" edge="1" source="mTWh2Is8anzTjaVcfyPL-47" target="mTWh2Is8anzTjaVcfyPL-49" parent="WIyWlLk6GJQsqaUBKTNV-1">
            <mxGeometry relative="1" as="geometry" />
          </mxCell>
        </object>
        <mxCell id="mTWh2Is8anzTjaVcfyPL-46" value="YES" style="edgeStyle=orthogonalEdgeStyle;rounded=0;orthogonalLoop=1;jettySize=auto;html=1;" edge="1" source="mTWh2Is8anzTjaVcfyPL-47" target="mTWh2Is8anzTjaVcfyPL-51" parent="WIyWlLk6GJQsqaUBKTNV-1">
          <mxGeometry relative="1" as="geometry" />
        </mxCell>
        <mxCell id="mTWh2Is8anzTjaVcfyPL-47" value="is s&#39; &amp;gt;&amp;gt; s?" style="rhombus;whiteSpace=wrap;html=1;rounded=0;" vertex="1" parent="WIyWlLk6GJQsqaUBKTNV-1">
          <mxGeometry x="1050" y="60" width="180" height="140" as="geometry" />
        </mxCell>
        <mxCell id="mTWh2Is8anzTjaVcfyPL-48" value="" style="edgeStyle=orthogonalEdgeStyle;rounded=0;orthogonalLoop=1;jettySize=auto;html=1;" edge="1" source="mTWh2Is8anzTjaVcfyPL-49" target="mTWh2Is8anzTjaVcfyPL-52" parent="WIyWlLk6GJQsqaUBKTNV-1">
          <mxGeometry relative="1" as="geometry" />
        </mxCell>
        <mxCell id="mTWh2Is8anzTjaVcfyPL-49" value="V stays in the range of platoon leader B long enough to complete the platoon membership process" style="whiteSpace=wrap;html=1;rounded=0;" vertex="1" parent="WIyWlLk6GJQsqaUBKTNV-1">
          <mxGeometry x="1340" y="80" width="120" height="100" as="geometry" />
        </mxCell>
        <mxCell id="mTWh2Is8anzTjaVcfyPL-50" value="" style="edgeStyle=orthogonalEdgeStyle;rounded=0;orthogonalLoop=1;jettySize=auto;html=1;" edge="1" source="mTWh2Is8anzTjaVcfyPL-51" target="mTWh2Is8anzTjaVcfyPL-54" parent="WIyWlLk6GJQsqaUBKTNV-1">
          <mxGeometry relative="1" as="geometry" />
        </mxCell>
        <mxCell id="mTWh2Is8anzTjaVcfyPL-51" value="The membership process is interrupted due to V speeding off out of range " style="whiteSpace=wrap;html=1;rounded=0;perimeterSpacing=0;gradientColor=none;" vertex="1" parent="WIyWlLk6GJQsqaUBKTNV-1">
          <mxGeometry x="1050" y="320" width="180" height="60" as="geometry" />
        </mxCell>
        <mxCell id="mTWh2Is8anzTjaVcfyPL-52" value="V joins B" style="whiteSpace=wrap;html=1;rounded=0;" vertex="1" parent="WIyWlLk6GJQsqaUBKTNV-1">
          <mxGeometry x="1340" y="240" width="120" height="60" as="geometry" />
        </mxCell>
        <mxCell id="mTWh2Is8anzTjaVcfyPL-53" value="" style="edgeStyle=orthogonalEdgeStyle;rounded=0;orthogonalLoop=1;jettySize=auto;html=1;entryX=0.5;entryY=0;entryDx=0;entryDy=0;" edge="1" source="mTWh2Is8anzTjaVcfyPL-54" target="mTWh2Is8anzTjaVcfyPL-65" parent="WIyWlLk6GJQsqaUBKTNV-1">
          <mxGeometry relative="1" as="geometry">
            <mxPoint x="1140" y="620" as="targetPoint" />
          </mxGeometry>
        </mxCell>
        <mxCell id="mTWh2Is8anzTjaVcfyPL-54" value="B transmits a message using DSRC, informing other platoons and vehicles about the presence of V and its speeding state, and records the action in its own chain" style="whiteSpace=wrap;html=1;rounded=0;" vertex="1" parent="WIyWlLk6GJQsqaUBKTNV-1">
          <mxGeometry x="1036" y="460" width="208" height="100" as="geometry" />
        </mxCell>
        <mxCell id="mTWh2Is8anzTjaVcfyPL-55" value="&lt;div&gt;3&lt;/div&gt;" style="ellipse;whiteSpace=wrap;html=1;rounded=0;" vertex="1" parent="WIyWlLk6GJQsqaUBKTNV-1">
          <mxGeometry x="1100" y="810" width="80" height="80" as="geometry" />
        </mxCell>
        <mxCell id="mTWh2Is8anzTjaVcfyPL-56" value="" style="endArrow=classic;html=1;rounded=0;exitX=0.5;exitY=1;exitDx=0;exitDy=0;entryX=0.5;entryY=0;entryDx=0;entryDy=0;" edge="1" parent="WIyWlLk6GJQsqaUBKTNV-1" source="mTWh2Is8anzTjaVcfyPL-42" target="mTWh2Is8anzTjaVcfyPL-47">
          <mxGeometry width="50" height="50" relative="1" as="geometry">
            <mxPoint x="1136" y="30" as="sourcePoint" />
            <mxPoint x="1186" y="-20" as="targetPoint" />
          </mxGeometry>
        </mxCell>
        <mxCell id="mTWh2Is8anzTjaVcfyPL-57" value="3" style="ellipse;whiteSpace=wrap;html=1;aspect=fixed;" vertex="1" parent="WIyWlLk6GJQsqaUBKTNV-1">
          <mxGeometry x="2059" y="-510" width="80" height="80" as="geometry" />
        </mxCell>
        <mxCell id="mTWh2Is8anzTjaVcfyPL-61" value="" style="edgeStyle=orthogonalEdgeStyle;rounded=0;orthogonalLoop=1;jettySize=auto;html=1;entryX=0.5;entryY=0;entryDx=0;entryDy=0;" edge="1" parent="WIyWlLk6GJQsqaUBKTNV-1" source="mTWh2Is8anzTjaVcfyPL-58" target="mTWh2Is8anzTjaVcfyPL-62">
          <mxGeometry relative="1" as="geometry">
            <mxPoint x="2099" y="-160" as="targetPoint" />
          </mxGeometry>
        </mxCell>
        <mxCell id="mTWh2Is8anzTjaVcfyPL-58" value="A and B approach a Trusted Authority endpoint (TA)" style="rounded=1;whiteSpace=wrap;html=1;" vertex="1" parent="WIyWlLk6GJQsqaUBKTNV-1">
          <mxGeometry x="1980" y="-327.72" width="238" height="77.72" as="geometry" />
        </mxCell>
        <mxCell id="mTWh2Is8anzTjaVcfyPL-59" value="" style="endArrow=classic;html=1;rounded=0;exitX=0.5;exitY=1;exitDx=0;exitDy=0;" edge="1" target="mTWh2Is8anzTjaVcfyPL-58" parent="WIyWlLk6GJQsqaUBKTNV-1">
          <mxGeometry width="50" height="50" relative="1" as="geometry">
            <mxPoint x="2099" y="-430" as="sourcePoint" />
            <mxPoint x="2098" y="-320" as="targetPoint" />
          </mxGeometry>
        </mxCell>
        <mxCell id="mTWh2Is8anzTjaVcfyPL-64" value="" style="edgeStyle=orthogonalEdgeStyle;rounded=0;orthogonalLoop=1;jettySize=auto;html=1;" edge="1" parent="WIyWlLk6GJQsqaUBKTNV-1" source="mTWh2Is8anzTjaVcfyPL-62" target="mTWh2Is8anzTjaVcfyPL-63">
          <mxGeometry relative="1" as="geometry" />
        </mxCell>
        <mxCell id="mTWh2Is8anzTjaVcfyPL-62" value="transmits all of the events committed to its current blockchain to the TA" style="rounded=0;whiteSpace=wrap;html=1;" vertex="1" parent="WIyWlLk6GJQsqaUBKTNV-1">
          <mxGeometry x="1988" y="-200" width="222" height="100" as="geometry" />
        </mxCell>
        <mxCell id="mTWh2Is8anzTjaVcfyPL-68" value="" style="edgeStyle=orthogonalEdgeStyle;rounded=0;orthogonalLoop=1;jettySize=auto;html=1;" edge="1" parent="WIyWlLk6GJQsqaUBKTNV-1" source="mTWh2Is8anzTjaVcfyPL-63" target="mTWh2Is8anzTjaVcfyPL-67">
          <mxGeometry relative="1" as="geometry" />
        </mxCell>
        <mxCell id="mTWh2Is8anzTjaVcfyPL-63" value="The TA assigns new pseudonyms to the two members" style="whiteSpace=wrap;html=1;rounded=0;" vertex="1" parent="WIyWlLk6GJQsqaUBKTNV-1">
          <mxGeometry x="1978" y="-50" width="242" height="60" as="geometry" />
        </mxCell>
        <mxCell id="mTWh2Is8anzTjaVcfyPL-65" value="A receives this message and marks the repetition of behavior in its own chain" style="rounded=0;whiteSpace=wrap;html=1;" vertex="1" parent="WIyWlLk6GJQsqaUBKTNV-1">
          <mxGeometry x="1050" y="640" width="180" height="80" as="geometry" />
        </mxCell>
        <mxCell id="mTWh2Is8anzTjaVcfyPL-66" value="" style="endArrow=classic;html=1;rounded=0;exitX=0.5;exitY=1;exitDx=0;exitDy=0;entryX=0.5;entryY=0;entryDx=0;entryDy=0;" edge="1" parent="WIyWlLk6GJQsqaUBKTNV-1" source="mTWh2Is8anzTjaVcfyPL-65" target="mTWh2Is8anzTjaVcfyPL-55">
          <mxGeometry width="50" height="50" relative="1" as="geometry">
            <mxPoint x="1180" y="810" as="sourcePoint" />
            <mxPoint x="1230" y="760" as="targetPoint" />
          </mxGeometry>
        </mxCell>
        <mxCell id="mTWh2Is8anzTjaVcfyPL-70" value="" style="edgeStyle=orthogonalEdgeStyle;rounded=0;orthogonalLoop=1;jettySize=auto;html=1;" edge="1" parent="WIyWlLk6GJQsqaUBKTNV-1" source="mTWh2Is8anzTjaVcfyPL-67" target="mTWh2Is8anzTjaVcfyPL-69">
          <mxGeometry relative="1" as="geometry" />
        </mxCell>
        <mxCell id="mTWh2Is8anzTjaVcfyPL-67" value="trust ratings for all parties are adjusted accordingly" style="whiteSpace=wrap;html=1;rounded=0;" vertex="1" parent="WIyWlLk6GJQsqaUBKTNV-1">
          <mxGeometry x="2039" y="90" width="120" height="60" as="geometry" />
        </mxCell>
        <mxCell id="mTWh2Is8anzTjaVcfyPL-69" value="END" style="ellipse;whiteSpace=wrap;html=1;rounded=0;" vertex="1" parent="WIyWlLk6GJQsqaUBKTNV-1">
          <mxGeometry x="2059" y="220" width="80" height="80" as="geometry" />
        </mxCell>
      </root>
    </mxGraphModel>
  </diagram>
</mxfile>
